<svg xmlns="http://www.w3.org/2000/svg" viewBox="0 0 800 1000" role="img" aria-label="Abstract mathematical coordinate field"><rect width="800" height="1000" fill="#f5f7f8"/><g stroke="#d8dee4" stroke-width="1"><path d="M80 0v1000M160 0v1000M240 0v1000M320 0v1000M400 0v1000M480 0v1000M560 0v1000M640 0v1000M720 0v1000"/><path d="M0 80h800M0 160h800M0 240h800M0 320h800M0 400h800M0 480h800M0 560h800M0 640h800M0 720h800M0 800h800M0 880h800M0 960h800"/></g><g fill="none" stroke-linecap="round" stroke-linejoin="round"><path d="M82 760C190 560 240 530 322 588c88 63 138 34 213-164 48-126 105-187 183-193" stroke="#255f85" stroke-width="9"/><path d="M106 255c118 37 214 115 288 234 74 119 167 203 280 252" stroke="#9a4f2d" stroke-width="7" opacity=".82"/><path d="M152 810 680 210" stroke="#1f2328" stroke-width="3" opacity=".4"/></g><g fill="#1f2328" opacity=".68" font-family="Georgia, 'Times New Roman', serif" font-size="34"><text x="95" y="185">x</text><text x="681" y="783">y</text><text x="462" y="384">f(x)</text><text x="202" y="628">2026</text></g><g fill="#fffefb" stroke="#1f2328" stroke-width="3"><circle cx="322" cy="588" r="13"/><circle cx="535" cy="424" r="13"/><circle cx="394" cy="489" r="11"/></g></svg>
